<mxfile host="Electron" modified="2023-10-11T01:44:29.823Z" agent="Mozilla/5.0 (Windows NT 10.0; Win64; x64) AppleWebKit/537.36 (KHTML, like Gecko) draw.io/22.0.2 Chrome/114.0.5735.289 Electron/25.8.4 Safari/537.36" etag="P4BxbaO5m0BGKSdkF0zk" version="22.0.2" type="device">
  <diagram name="PÃ¡gina-1" id="HlRWXg1bFJp1Xod3IB3_">
    <mxGraphModel dx="880" dy="532" grid="1" gridSize="10" guides="1" tooltips="1" connect="1" arrows="1" fold="1" page="1" pageScale="1" pageWidth="827" pageHeight="1169" math="0" shadow="0">
      <root>
        <mxCell id="0" />
        <mxCell id="1" parent="0" />
        <mxCell id="mv2MNBe9qTm98jDRmfba-1" value="&lt;p style=&quot;margin:0px;margin-top:4px;text-align:center;&quot;&gt;&lt;i&gt;&amp;lt;&amp;lt;Interface&amp;gt;&amp;gt;&lt;/i&gt;&lt;br&gt;&lt;b&gt;IMapa&lt;/b&gt;&lt;/p&gt;&lt;hr size=&quot;1&quot;&gt;&lt;p style=&quot;margin:0px;margin-left:4px;&quot;&gt;&lt;br&gt;&lt;/p&gt;&lt;hr size=&quot;1&quot;&gt;&lt;p style=&quot;margin:0px;margin-left:4px;&quot;&gt;+ mostrar(DatosMapaGeoJSon): String&lt;br&gt;&lt;br&gt;&lt;/p&gt;" style="verticalAlign=top;align=left;overflow=fill;fontSize=12;fontFamily=Helvetica;html=1;whiteSpace=wrap;" parent="1" vertex="1">
          <mxGeometry x="656.44" y="100" width="221" height="100" as="geometry" />
        </mxCell>
        <mxCell id="k9LaV1wvxI8ZOForSVoQ-13" value="" style="endArrow=block;dashed=1;endFill=0;endSize=12;html=1;rounded=0;entryX=0.5;entryY=1;entryDx=0;entryDy=0;exitX=0.5;exitY=0;exitDx=0;exitDy=0;" parent="1" source="NOVB4AsmNn6BfGM_I8OZ-1" target="mv2MNBe9qTm98jDRmfba-1" edge="1">
          <mxGeometry width="160" relative="1" as="geometry">
            <mxPoint x="621.94" y="313.5" as="sourcePoint" />
            <mxPoint x="776.94" y="233.5" as="targetPoint" />
          </mxGeometry>
        </mxCell>
        <mxCell id="k9LaV1wvxI8ZOForSVoQ-22" value="BibliotecaMapaKML" style="swimlane;fontStyle=1;align=center;verticalAlign=top;childLayout=stackLayout;horizontal=1;startSize=26;horizontalStack=0;resizeParent=1;resizeParentMax=0;resizeLast=0;collapsible=1;marginBottom=0;whiteSpace=wrap;html=1;" parent="1" vertex="1">
          <mxGeometry x="972.94" y="230" width="190" height="110" as="geometry" />
        </mxCell>
        <mxCell id="k9LaV1wvxI8ZOForSVoQ-25" value="" style="line;strokeWidth=1;fillColor=none;align=left;verticalAlign=middle;spacingTop=-1;spacingLeft=3;spacingRight=3;rotatable=0;labelPosition=right;points=[];portConstraint=eastwest;strokeColor=inherit;" parent="k9LaV1wvxI8ZOForSVoQ-22" vertex="1">
          <mxGeometry y="26" width="190" height="8" as="geometry" />
        </mxCell>
        <mxCell id="k9LaV1wvxI8ZOForSVoQ-26" value="&lt;p style=&quot;border-color: var(--border-color); margin: 0px 0px 0px 4px;&quot;&gt;+ obtenerDatosConsulta(): void&lt;/p&gt;&lt;p style=&quot;border-color: var(--border-color); margin: 0px 0px 0px 4px;&quot;&gt;+ consultarBD(): void&lt;/p&gt;&lt;p style=&quot;border-color: var(--border-color); margin: 0px 0px 0px 4px;&quot;&gt;+ aplicarCalculos(): void&lt;br style=&quot;border-color: var(--border-color);&quot;&gt;&lt;/p&gt;&lt;p style=&quot;border-color: var(--border-color); margin: 0px 0px 0px 4px;&quot;&gt;+ mostrarResultados(): void&lt;/p&gt;" style="text;strokeColor=none;fillColor=none;align=left;verticalAlign=top;spacingLeft=4;spacingRight=4;overflow=hidden;rotatable=0;points=[[0,0.5],[1,0.5]];portConstraint=eastwest;whiteSpace=wrap;html=1;" parent="k9LaV1wvxI8ZOForSVoQ-22" vertex="1">
          <mxGeometry y="34" width="190" height="76" as="geometry" />
        </mxCell>
        <mxCell id="NOVB4AsmNn6BfGM_I8OZ-1" value="MapaAdaptador" style="swimlane;fontStyle=1;align=center;verticalAlign=top;childLayout=stackLayout;horizontal=1;startSize=40;horizontalStack=0;resizeParent=1;resizeParentMax=0;resizeLast=0;collapsible=1;marginBottom=0;whiteSpace=wrap;html=1;" vertex="1" parent="1">
          <mxGeometry x="650" y="238" width="233.87" height="114" as="geometry">
            <mxRectangle x="243" y="250" width="150" height="40" as="alternateBounds" />
          </mxGeometry>
        </mxCell>
        <mxCell id="NOVB4AsmNn6BfGM_I8OZ-2" value="- visualizador: BibliotecaMapaKML" style="text;strokeColor=none;fillColor=none;align=left;verticalAlign=top;spacingLeft=4;spacingRight=4;overflow=hidden;rotatable=0;points=[[0,0.5],[1,0.5]];portConstraint=eastwest;whiteSpace=wrap;html=1;" vertex="1" parent="NOVB4AsmNn6BfGM_I8OZ-1">
          <mxGeometry y="40" width="233.87" height="26" as="geometry" />
        </mxCell>
        <mxCell id="NOVB4AsmNn6BfGM_I8OZ-3" value="" style="line;strokeWidth=1;fillColor=none;align=left;verticalAlign=middle;spacingTop=-1;spacingLeft=3;spacingRight=3;rotatable=0;labelPosition=right;points=[];portConstraint=eastwest;strokeColor=inherit;" vertex="1" parent="NOVB4AsmNn6BfGM_I8OZ-1">
          <mxGeometry y="66" width="233.87" height="8" as="geometry" />
        </mxCell>
        <mxCell id="NOVB4AsmNn6BfGM_I8OZ-4" value="+ MapaAdaptador(IFormato): void&lt;br&gt;+ mostrar(DatosMapaGeoJSon): String" style="text;strokeColor=none;fillColor=none;align=left;verticalAlign=top;spacingLeft=4;spacingRight=4;overflow=hidden;rotatable=0;points=[[0,0.5],[1,0.5]];portConstraint=eastwest;whiteSpace=wrap;html=1;" vertex="1" parent="NOVB4AsmNn6BfGM_I8OZ-1">
          <mxGeometry y="74" width="233.87" height="40" as="geometry" />
        </mxCell>
        <mxCell id="NOVB4AsmNn6BfGM_I8OZ-9" value="" style="endArrow=diamondThin;endFill=0;endSize=24;html=1;rounded=0;exitX=-0.011;exitY=0.368;exitDx=0;exitDy=0;exitPerimeter=0;entryX=1;entryY=0.5;entryDx=0;entryDy=0;" edge="1" parent="1" source="k9LaV1wvxI8ZOForSVoQ-26" target="NOVB4AsmNn6BfGM_I8OZ-2">
          <mxGeometry width="160" relative="1" as="geometry">
            <mxPoint x="742.94" y="460" as="sourcePoint" />
            <mxPoint x="902.94" y="460" as="targetPoint" />
          </mxGeometry>
        </mxCell>
        <mxCell id="NOVB4AsmNn6BfGM_I8OZ-14" value="DatosMapaGeoJSon" style="swimlane;fontStyle=1;align=center;verticalAlign=top;childLayout=stackLayout;horizontal=1;startSize=40;horizontalStack=0;resizeParent=1;resizeParentMax=0;resizeLast=0;collapsible=1;marginBottom=0;whiteSpace=wrap;html=1;" vertex="1" parent="1">
          <mxGeometry x="350" y="180" width="250" height="130" as="geometry">
            <mxRectangle x="243" y="250" width="150" height="40" as="alternateBounds" />
          </mxGeometry>
        </mxCell>
        <mxCell id="NOVB4AsmNn6BfGM_I8OZ-15" value="- titulo: String&lt;br style=&quot;border-color: var(--border-color);&quot;&gt;- cuerpo: String&lt;br style=&quot;border-color: var(--border-color);&quot;&gt;- escala: String" style="text;strokeColor=none;fillColor=none;align=left;verticalAlign=top;spacingLeft=4;spacingRight=4;overflow=hidden;rotatable=0;points=[[0,0.5],[1,0.5]];portConstraint=eastwest;whiteSpace=wrap;html=1;" vertex="1" parent="NOVB4AsmNn6BfGM_I8OZ-14">
          <mxGeometry y="40" width="250" height="50" as="geometry" />
        </mxCell>
        <mxCell id="NOVB4AsmNn6BfGM_I8OZ-16" value="" style="line;strokeWidth=1;fillColor=none;align=left;verticalAlign=middle;spacingTop=-1;spacingLeft=3;spacingRight=3;rotatable=0;labelPosition=right;points=[];portConstraint=eastwest;strokeColor=inherit;" vertex="1" parent="NOVB4AsmNn6BfGM_I8OZ-14">
          <mxGeometry y="90" width="250" height="8" as="geometry" />
        </mxCell>
        <mxCell id="NOVB4AsmNn6BfGM_I8OZ-17" value="+ DatosMapaGeoJson (String,String,String)" style="text;strokeColor=none;fillColor=none;align=left;verticalAlign=top;spacingLeft=4;spacingRight=4;overflow=hidden;rotatable=0;points=[[0,0.5],[1,0.5]];portConstraint=eastwest;whiteSpace=wrap;html=1;" vertex="1" parent="NOVB4AsmNn6BfGM_I8OZ-14">
          <mxGeometry y="98" width="250" height="32" as="geometry" />
        </mxCell>
      </root>
    </mxGraphModel>
  </diagram>
</mxfile>
